<svg version="1.1" id="Layer_1" xmlns="http://www.w3.org/2000/svg" xmlns:xlink="http://www.w3.org/1999/xlink" x="0px" y="0px"
	 width="100%" viewBox="0 0 1154 216" enable-background="new 0 0 1154 216" xml:space="preserve">
<path fill="#000000" opacity="0" stroke="none" 
	d="
M1155.000000,134.000000 
	C1155.000000,158.020889 1155.000000,182.041794 1154.820435,206.938538 
	C1151.786743,207.549347 1148.933350,207.061340 1146.078491,207.054031 
	C1120.123779,206.987640 1094.168823,206.994873 1068.213867,207.006577 
	C1062.940552,207.008957 1060.075195,209.235428 1058.645508,214.819550 
	C1066.192871,214.819550 1073.584717,214.819550 1081.442139,214.898621 
	C1100.606445,214.898773 1119.305176,214.819870 1138.446045,214.771179 
	C1143.544556,214.801392 1148.200806,214.801392 1151.899170,214.801392 
	C1153.208008,212.774872 1154.104004,211.387451 1155.000000,210.000000 
	C1155.000000,212.326019 1155.000000,214.652039 1155.000000,217.000000 
	C1110.979126,217.000000 1066.958130,217.000000 1022.562927,216.643372 
	C1023.524597,215.766449 1024.824097,215.104996 1026.202515,214.748901 
	C1034.909912,212.499237 1043.141602,209.654938 1050.288452,203.607101 
	C1059.823364,195.538422 1065.230713,179.744965 1061.391724,167.993210 
	C1057.888550,157.269394 1047.729980,150.793945 1034.502930,151.106781 
	C1021.704773,151.095108 1009.370972,151.125793 996.587280,151.113480 
	C994.639771,151.052460 993.112488,150.836166 991.650208,151.054749 
	C987.757507,151.636612 985.015991,149.459702 984.619934,146.301117 
	C984.176941,142.768997 985.401245,139.001297 986.154785,135.389252 
	C986.225159,135.051910 988.140015,134.910202 989.173218,134.992905 
	C997.083008,135.626099 1005.032776,137.220963 1012.880615,136.809570 
	C1023.631287,136.246048 1033.913696,133.297256 1040.773682,123.819443 
	C1046.914673,115.334984 1049.386841,105.771683 1046.998657,95.607765 
	C1045.508667,89.266113 1042.342529,83.332207 1040.201782,77.121170 
	C1039.538208,75.195900 1039.023193,72.651299 1039.737549,70.927971 
	C1041.713623,66.160851 1043.935547,65.775238 1050.335571,68.129189 
	C1055.548218,70.046417 1060.776733,69.089577 1063.692749,65.684555 
	C1066.629883,62.254879 1066.745605,55.592808 1063.945068,51.167297 
	C1061.405396,47.153656 1056.547241,45.553616 1051.307495,46.699482 
	C1043.632080,48.377953 1040.101562,54.448887 1036.394531,60.378960 
	C1034.565796,63.304359 1032.770630,66.250847 1030.639648,69.005898 
	C1017.452698,62.854282 1004.264099,63.336937 990.547791,66.911484 
	C978.623230,69.870102 971.528564,77.199318 968.637756,88.679314 
	C965.359680,101.697098 965.976868,114.330147 974.861328,124.960533 
	C978.243591,129.007370 978.358765,131.122681 975.446960,135.246078 
	C970.452942,142.318314 968.195801,150.238205 972.882385,158.556656 
	C974.075806,160.674988 975.828308,162.478394 977.628906,164.823761 
	C975.985352,165.965851 974.545105,167.019241 973.053833,167.994720 
	C958.635193,177.426453 959.937561,200.544632 973.225098,207.639648 
	C978.714294,210.570663 984.737366,212.496002 990.487610,214.949127 
	C991.724915,215.476944 992.832581,216.308411 994.000000,217.000000 
	C664.498901,217.000000 334.997772,217.003922 5.496707,216.858841 
	C4.208650,216.858261 0.870862,219.326981 1.355385,214.213531 
	C3.214414,213.889481 4.711788,214.725037 6.222777,214.750443 
	C13.139476,214.866684 20.059988,214.755981 27.438366,214.839844 
	C36.936398,214.878235 45.975193,214.803574 55.480740,214.761230 
	C71.958344,214.771393 87.969193,214.749222 104.438538,214.839996 
	C105.563148,214.968231 106.229263,214.996887 106.895370,214.996887 
	C382.777649,214.999191 658.659973,214.999985 934.542236,214.988754 
	C936.032349,214.988693 937.522461,214.819519 939.455017,214.761444 
	C945.925415,214.654953 951.953369,214.516357 958.671875,214.361893 
	C954.709595,207.625427 950.364502,205.842163 943.980103,205.845840 
	C635.348022,206.024002 326.715912,206.002228 18.083796,206.002670 
	C12.389197,206.002686 6.694599,206.000916 1.000000,206.000000 
	C1.000000,140.979111 1.000000,75.958206 1.446044,10.450617 
	C4.272936,9.900236 6.653784,9.836555 9.399401,9.878582 
	C14.242282,11.194654 18.949442,12.245049 20.545668,17.425232 
	C21.599730,20.845943 22.141708,24.424446 22.678921,28.281658 
	C22.307604,29.446714 22.049749,30.262529 22.050514,31.078102 
	C22.076113,58.339851 22.126389,85.601578 22.156143,113.311340 
	C22.479614,116.839500 22.820000,119.919632 23.124458,123.449829 
	C22.611395,148.433990 36.737289,166.421204 60.268013,170.938263 
	C76.598763,174.073166 92.960014,174.288757 109.121964,169.916962 
	C118.659607,167.337021 126.646530,162.565796 132.209793,153.793854 
	C139.051926,143.005463 140.253082,131.232178 140.354675,118.699913 
	C140.753540,117.574089 140.968277,116.756386 140.968887,115.938515 
	C140.989548,88.542328 141.001419,61.146114 140.955460,33.750008 
	C140.953354,32.500729 140.403152,31.252371 140.139191,29.645359 
	C140.385651,28.001541 140.769455,26.718636 140.790009,25.429939 
	C140.952148,15.255211 145.431381,10.532022 155.549057,9.970289 
	C162.025543,9.610715 162.025543,9.610716 161.807373,2.717943 
	C161.887451,1.914066 161.943726,1.457033 162.000000,1.000000 
	C176.687561,1.000000 191.375122,1.000000 206.444946,1.353154 
	C205.199417,2.416860 203.631073,3.349226 201.934692,3.803721 
	C184.568375,8.456510 171.823074,18.798094 165.830460,35.750484 
	C162.338501,45.628784 160.366791,56.210564 159.015793,66.644760 
	C156.272202,87.834320 158.075134,108.814659 166.186081,128.740021 
	C175.884552,152.565338 192.982971,167.853287 219.276535,171.883453 
	C219.494934,171.901489 219.931854,171.866913 220.263580,171.910873 
	C221.039780,171.993454 221.484253,172.032074 222.287140,172.288818 
	C231.121521,172.357529 239.597488,172.208099 248.468903,172.044418 
	C249.916931,171.965988 250.969543,171.901810 252.433868,171.878021 
	C255.912476,171.289749 258.979370,170.661057 262.460999,170.027069 
	C265.794891,169.431915 268.775635,169.050842 271.621399,168.211868 
	C279.210480,165.974548 279.277618,165.580658 278.969574,157.720108 
	C278.817871,153.849472 276.995636,152.968750 273.829285,154.237534 
	C262.928833,158.605392 251.562317,159.424377 240.000793,158.988342 
	C222.839630,158.341110 208.761047,151.591248 198.754715,137.461899 
	C189.216797,123.993965 185.573288,108.466797 185.139465,92.301208 
	C184.809937,80.022354 185.078491,67.651978 186.229294,55.430450 
	C187.345459,43.576664 191.046112,32.275497 199.336365,23.166544 
	C213.453781,7.654973 242.093063,9.233736 256.500854,22.880976 
	C262.876068,28.919678 266.140015,36.719074 269.071472,44.708878 
	C270.107330,47.532082 271.649872,49.251747 274.950623,48.841663 
	C278.464874,48.405048 277.971008,45.759499 277.910034,43.535957 
	C277.622711,33.065468 277.412720,22.584280 276.668152,12.143054 
	C276.538849,10.329680 274.274689,7.700596 272.476776,7.152042 
	C266.617889,5.364467 260.501526,4.435743 254.524597,3.007695 
	C253.261917,2.706004 252.170395,1.687970 251.000000,0.999999 
	C286.020905,1.000000 321.041779,1.000000 356.448151,1.354063 
	C354.877808,2.486386 352.921356,3.262973 350.966370,4.043269 
	C346.812988,5.700985 342.438904,6.955903 338.544495,9.087166 
	C317.923492,20.372295 316.406189,45.644470 323.336273,62.029224 
	C325.428314,66.975380 329.573029,71.379234 333.627319,75.107262 
	C344.908691,85.480782 359.269135,90.902267 372.391785,98.341614 
	C379.682861,102.474976 386.952301,107.121262 393.028717,112.819031 
	C404.101654,123.201981 401.700592,142.925690 389.376862,151.835938 
	C379.667511,158.855972 368.734863,160.037064 357.488708,158.809036 
	C342.134094,157.132370 331.389496,149.020935 325.878357,134.246765 
	C325.355225,132.844254 322.902740,131.444580 321.316040,131.409836 
	C320.273285,131.387009 318.246552,133.825577 318.254517,135.152283 
	C318.308441,144.120728 318.787750,153.086609 319.109863,162.453583 
	C320.175690,164.839478 320.994202,168.316666 322.390106,168.566406 
	C330.839417,170.078125 339.420654,170.852600 348.277527,171.922821 
	C349.025818,172.020996 349.454407,172.069839 350.234894,172.355743 
	C359.031189,172.348709 367.475555,172.104630 376.351990,171.895020 
	C389.064667,171.093674 400.152405,166.907883 409.836700,159.414932 
	C429.421906,144.261505 430.462982,113.129662 416.032898,97.417274 
	C406.383301,86.910194 394.181519,80.279251 381.758606,73.830788 
	C372.176453,68.856873 362.467621,63.996502 353.422455,58.146545 
	C335.928955,46.832661 338.748413,25.118490 356.379028,15.770868 
	C372.837799,7.044550 403.584808,13.555401 409.101166,36.686394 
	C409.723969,39.297924 411.103119,41.837036 414.159668,40.613407 
	C415.513306,40.071491 416.749054,37.465908 416.806305,35.755859 
	C417.079437,27.600882 416.775116,19.427692 416.988647,11.269161 
	C417.113464,6.500136 415.266754,4.352306 410.443237,3.854604 
	C407.231476,3.523207 404.143433,1.993416 401.000000,0.999998 
	C652.333313,1.000000 903.666687,1.000000 1155.000000,1.000000 
	C1155.000000,34.763687 1155.000000,68.413185 1154.645386,102.447380 
	C1153.489868,100.726723 1152.623657,98.643562 1151.898804,96.512283 
	C1148.234253,85.736832 1142.776123,76.361794 1131.905029,70.716949 
	C1118.623779,63.136673 1105.031128,62.866066 1090.737915,67.307053 
	C1076.350098,73.253174 1067.869385,83.837364 1063.796021,98.340096 
	C1060.349365,110.611191 1060.345215,122.851204 1062.865601,135.289932 
	C1064.667236,144.180664 1068.189087,152.207077 1074.382812,158.688522 
	C1087.018066,171.910431 1102.772217,175.092606 1120.158325,171.367889 
	C1138.327515,167.475372 1147.806763,154.895386 1152.767334,137.962631 
	C1153.182495,136.545349 1154.240601,135.316437 1155.000000,134.000000 
M825.905823,69.545708 
	C825.686646,69.315849 825.418518,69.192184 824.333130,69.147842 
	C822.963440,70.447311 821.593750,71.746788 820.224060,73.046272 
	C821.645996,74.060905 822.937378,75.628136 824.511169,75.999962 
	C834.317871,78.316948 837.019287,81.500214 837.024780,91.474953 
	C837.035034,110.120094 837.045837,128.765274 837.019714,147.410385 
	C837.004639,158.169479 834.497620,164.105637 823.094604,164.252258 
	C822.093201,164.265121 820.200317,166.359222 820.340576,167.224228 
	C820.557922,168.565109 822.154175,170.719101 823.192383,170.734467 
	C838.337097,170.958710 853.487305,170.956772 868.632019,170.730988 
	C869.733154,170.714584 871.623474,168.570282 871.644043,167.389206 
	C871.662781,166.313797 869.761414,164.438553 868.489929,164.229004 
	C858.741333,162.622269 855.968933,159.529938 855.971741,149.750473 
	C855.979248,123.448021 855.873352,97.145065 856.028625,70.843590 
	C856.055969,66.212662 855.133484,63.705360 849.162231,65.264343 
	C847.557434,65.519020 845.939514,65.710373 844.350220,66.039803 
	C838.719543,67.206879 833.098694,68.421104 827.334839,69.707954 
	C827.334839,69.707954 827.423767,69.848251 826.697815,69.754837 
	C826.463013,69.821251 826.228271,69.887657 826.000244,70.009361 
	C826.000244,70.009361 826.044983,69.976212 825.905823,69.545708 
M941.677734,71.440849 
	C940.059570,70.615601 938.480103,69.701088 936.817139,68.979027 
	C921.203613,62.199497 905.877686,62.356857 890.255554,71.134239 
	C886.197998,75.364845 880.800720,78.931129 878.316162,83.941719 
	C867.880127,104.987915 868.367493,126.722076 878.281006,147.691223 
	C881.278198,154.030914 887.915039,158.649902 893.276855,164.635223 
	C900.814514,169.367737 908.958862,172.036697 918.400146,171.997833 
	C918.400146,171.997833 918.870850,172.096680 919.565063,172.584549 
	C927.362061,172.020248 935.158997,171.455963 943.745300,170.902588 
	C945.803955,170.399429 947.924622,170.068619 949.908020,169.356018 
	C953.644958,168.013443 953.401123,164.698898 952.463318,161.981247 
	C952.187744,161.182846 948.846008,161.442581 946.083923,161.166351 
	C936.108521,163.079544 926.450806,162.160278 916.695618,157.417969 
	C899.001099,147.755157 893.770752,130.919998 891.062378,112.688782 
	C890.614258,109.672462 892.162537,107.988312 895.372070,108.015480 
	C899.530457,108.050690 903.689636,107.998680 907.848450,107.996315 
	C921.823547,107.988350 935.798706,107.965401 949.773682,107.997391 
	C952.749084,108.004204 954.763977,107.536171 955.027710,103.755707 
	C955.918274,90.988777 952.514160,80.103340 941.677734,71.440849 
M489.132599,65.927628 
	C480.641754,63.945904 472.071533,63.564659 463.629395,65.774025 
	C458.935577,67.002419 454.488007,69.171501 449.241180,71.062195 
	C443.701630,73.423225 440.232544,77.671936 438.129150,83.190216 
	C436.420502,87.672813 437.272003,91.569801 440.559418,95.053581 
	C444.178833,98.889114 448.955139,98.931503 453.089417,97.477707 
	C456.958374,96.117218 459.663025,92.627464 460.006531,87.915527 
	C460.777588,77.338058 461.720093,75.847527 472.097137,74.609055 
	C482.575714,73.358467 489.606140,77.186096 491.021362,86.797478 
	C491.910248,92.834381 491.918579,99.021156 492.035095,105.146149 
	C492.163940,111.920815 491.256531,112.615204 484.288422,112.971725 
	C472.790985,113.559990 461.581879,115.362587 450.917725,120.107529 
	C440.728485,124.641151 433.437592,136.423950 434.004883,148.325043 
	C434.487152,158.442520 442.907043,168.516418 453.103210,171.558197 
	C460.064056,173.634811 467.154663,173.542358 473.629974,170.992676 
	C480.420776,168.318771 486.586121,164.056564 492.843475,160.589035 
	C493.622833,165.449570 496.778473,169.588913 502.480255,171.618591 
	C509.922333,174.267807 517.275024,172.598801 524.545227,170.880951 
	C525.562317,170.640640 526.818054,168.458160 526.717163,167.281479 
	C526.619446,166.142197 525.094116,164.661652 523.869080,164.202164 
	C522.400391,163.651321 520.585754,164.003616 518.920837,163.998779 
	C511.638641,163.977600 510.986206,163.373398 510.979034,155.930817 
	C510.958496,134.612640 511.003448,113.294411 510.985077,91.976227 
	C510.973572,78.604576 503.188416,69.102974 489.132599,65.927628 
M689.054993,146.758545 
	C689.718140,157.798187 681.585815,164.458618 669.496948,163.692627 
	C666.839233,167.912720 667.765625,169.933319 672.651978,169.952118 
	C685.766296,170.002563 698.881287,169.892151 712.869324,169.925629 
	C714.913513,169.898972 716.957764,169.872330 719.936340,169.928680 
	C730.185242,169.619293 740.485474,169.824661 750.664124,168.810333 
	C756.917908,168.187149 762.985718,165.698196 769.869690,163.980026 
	C789.952637,157.128464 801.867126,142.577515 807.949524,122.880943 
	C814.205872,102.620903 814.208679,81.914871 810.728271,61.217022 
	C808.471497,47.795685 803.974976,35.124912 794.364014,24.950535 
	C780.986023,10.788385 764.220886,4.832996 744.372009,4.552383 
	C743.064636,4.372332 741.757446,4.036818 740.449890,4.035432 
	C719.188599,4.012896 697.927368,4.031317 676.666077,4.045356 
	C674.838867,4.046563 672.931091,3.769258 671.212646,4.211518 
	C670.063293,4.507308 669.183105,5.848491 668.182434,6.721863 
	C669.168823,7.782795 669.997803,9.490302 671.172852,9.776426 
	C674.038147,10.474118 677.063843,10.513287 680.538391,11.053650 
	C686.732483,13.849624 688.895447,19.112555 688.997498,25.410534 
	C689.168762,35.980377 689.136414,46.553520 689.079773,58.037312 
	C689.098877,87.324829 689.118042,116.612350 689.054993,146.758545 
M608.094421,142.481598 
	C608.087891,144.646805 608.059326,146.812225 608.078674,148.977203 
	C608.157349,157.801163 606.275391,163.338470 594.698120,164.218063 
	C593.444214,164.313309 592.348572,166.491409 591.179504,167.703384 
	C592.535156,168.771820 593.876526,170.747711 595.248657,170.769257 
	C610.068604,171.002213 624.893494,170.920532 639.716980,170.944244 
	C642.203735,170.948227 644.407532,170.185226 643.697876,167.353027 
	C643.364258,166.021484 641.337891,164.394012 639.889404,164.179810 
	C631.088379,162.878204 629.557434,161.722977 627.655396,153.072327 
	C627.162231,150.829132 627.044250,148.466873 627.039246,146.158676 
	C626.999023,127.504059 627.346252,108.841606 626.897949,90.197830 
	C626.677368,81.024193 625.391357,71.593513 615.305481,67.184380 
	C601.387451,61.099998 585.355042,64.455460 575.234314,76.686821 
	C572.622498,79.843346 570.357910,83.287224 567.933838,86.599129 
	C566.942261,81.072807 566.775452,76.083702 566.995117,71.111671 
	C567.170105,67.151665 565.522705,65.570969 561.696289,66.008965 
	C553.136597,66.988747 544.595398,68.220566 536.009888,68.845749 
	C531.607300,69.166344 530.015381,70.797562 531.047791,75.366524 
	C533.627075,75.960136 536.375916,76.473854 539.054321,77.235168 
	C543.885742,78.608406 546.914734,81.779213 546.941162,86.901619 
	C547.053162,108.553635 547.133911,130.207764 546.931458,151.858383 
	C546.858765,159.627731 542.873291,163.407593 535.186157,163.961136 
	C532.624268,164.145615 529.942749,164.614975 530.592712,167.590164 
	C530.901550,169.003448 533.801331,170.769592 535.556763,170.802490 
	C549.542786,171.064407 563.536194,170.990906 577.526611,170.903290 
	C579.626099,170.890137 582.360596,171.679214 582.577271,167.836594 
	C582.801270,163.863037 580.225891,164.253525 577.715515,163.992966 
	C569.930908,163.184998 566.980225,159.857773 566.957703,151.939270 
	C566.928833,141.779144 567.010376,131.618454 566.936523,121.458794 
	C566.819092,105.300323 573.347107,92.190361 585.100342,81.447227 
	C589.656372,77.282761 595.240662,77.201897 600.632507,78.559372 
	C605.928406,79.892708 607.047974,84.844055 607.866943,89.533371 
	C608.150574,91.157295 608.066284,92.853813 608.068298,94.517273 
	C608.087646,110.173950 608.089233,125.830643 608.094421,142.481598 
M847.174438,45.963634 
	C849.035339,45.336674 851.036255,44.964378 852.730164,44.033566 
	C857.258789,41.545177 859.736328,35.583828 858.879333,29.887781 
	C858.180725,25.244110 853.612122,19.904789 849.658020,19.110727 
	C840.947815,17.361553 832.794373,23.029112 832.293274,31.666801 
	C831.773071,40.634880 838.946289,47.029957 847.174438,45.963634 
z"/>
<path fill="#000000" opacity="0" stroke="none" 
	d="
M67.000000,1.000000 
	C79.020897,1.000000 91.041786,1.000000 103.582672,1.324010 
	C104.040489,2.080818 103.978317,2.513616 103.698776,3.271593 
	C102.652206,9.480126 103.047455,9.982298 108.625572,9.954489 
	C109.763504,9.948816 110.900764,9.805635 112.349571,9.905187 
	C120.883965,12.873364 124.140259,18.717182 124.070282,27.255320 
	C123.891624,49.058712 124.169945,70.865700 124.016335,92.669502 
	C123.926270,105.453423 124.012268,118.294655 122.831833,130.999802 
	C121.527031,145.043655 114.267212,155.199356 99.557022,159.152054 
	C89.086868,160.989090 79.046577,161.164581 68.765305,158.653351 
	C57.873856,154.338989 51.591763,146.271103 49.234058,135.531433 
	C47.475937,127.522926 47.074032,119.216682 46.302040,110.697525 
	C46.687286,109.207588 46.969501,108.063293 46.970734,106.918709 
	C46.996738,82.698517 47.006371,58.478256 46.953224,34.258156 
	C46.950081,32.825779 46.392418,31.394619 46.094540,29.558704 
	C46.378422,27.526857 46.705986,25.905563 46.935230,24.270487 
	C48.296299,14.562859 52.846943,10.405829 62.656033,9.945137 
	C68.071030,9.690818 68.658218,8.732921 66.887268,2.693939 
	C66.922035,1.901425 66.961014,1.450713 67.000000,1.000000 
z"/>
<path fill="#C59015" opacity="1.000000" stroke="none" 
	d="
M26.979132,214.726807 
	C20.059988,214.755981 13.139476,214.866684 6.222777,214.750443 
	C4.711788,214.725037 3.214414,213.889481 1.355385,213.713531 
	C1.000000,211.629440 1.000000,209.258896 1.000000,206.444168 
	C6.694599,206.000916 12.389197,206.002686 18.083796,206.002670 
	C326.715912,206.002228 635.348022,206.024002 943.980103,205.845840 
	C950.364502,205.842163 954.709595,207.625427 958.671875,214.361893 
	C951.953369,214.516357 945.925415,214.654953 939.084106,214.584122 
	C936.282104,214.248444 934.293457,214.011749 932.304871,214.011627 
	C658.324768,213.993790 384.344727,213.991531 110.364639,214.022186 
	C108.236420,214.022430 106.108238,214.481964 103.980042,214.727051 
	C87.969193,214.749222 71.958344,214.771393 55.106895,214.584717 
	C45.170582,214.492874 36.074856,214.609833 26.979132,214.726807 
z"/>
<path fill="#182B48" opacity="1.000000" stroke="none" 
	d="
M349.882965,172.118698 
	C349.454407,172.069839 349.025818,172.020996 348.045746,171.658142 
	C342.450012,170.219254 337.434357,168.936874 332.353394,168.014420 
	C327.407562,167.116486 322.004974,167.458939 319.129425,162.053329 
	C318.787750,153.086609 318.308441,144.120728 318.254517,135.152283 
	C318.246552,133.825577 320.273285,131.387009 321.316040,131.409836 
	C322.902740,131.444580 325.355225,132.844254 325.878357,134.246765 
	C331.389496,149.020935 342.134094,157.132370 357.488708,158.809036 
	C368.734863,160.037064 379.667511,158.855972 389.376862,151.835938 
	C401.700592,142.925690 404.101654,123.201981 393.028717,112.819031 
	C386.952301,107.121262 379.682861,102.474976 372.391785,98.341614 
	C359.269135,90.902267 344.908691,85.480782 333.627319,75.107262 
	C329.573029,71.379234 325.428314,66.975380 323.336273,62.029224 
	C316.406189,45.644470 317.923492,20.372295 338.544495,9.087166 
	C342.438904,6.955903 346.812988,5.700985 350.966370,4.043269 
	C352.921356,3.262973 354.877808,2.486386 356.916809,1.354063 
	C371.354218,1.000000 385.708466,1.000000 400.531342,0.999998 
	C404.143433,1.993416 407.231476,3.523207 410.443237,3.854604 
	C415.266754,4.352306 417.113464,6.500136 416.988647,11.269161 
	C416.775116,19.427692 417.079437,27.600882 416.806305,35.755859 
	C416.749054,37.465908 415.513306,40.071491 414.159668,40.613407 
	C411.103119,41.837036 409.723969,39.297924 409.101166,36.686394 
	C403.584808,13.555401 372.837799,7.044550 356.379028,15.770868 
	C338.748413,25.118490 335.928955,46.832661 353.422455,58.146545 
	C362.467621,63.996502 372.176453,68.856873 381.758606,73.830788 
	C394.181519,80.279251 406.383301,86.910194 416.032898,97.417274 
	C430.462982,113.129662 429.421906,144.261505 409.836700,159.414932 
	C400.152405,166.907883 389.064667,171.093674 376.056458,171.676865 
	C367.286713,171.190414 359.245026,170.934464 351.201324,170.783798 
	C350.770355,170.775726 350.322784,171.653366 349.882965,172.118698 
z"/>
<path fill="#182B47" opacity="1.000000" stroke="none" 
	d="
M1030.960327,69.187782 
	C1032.770630,66.250847 1034.565796,63.304359 1036.394531,60.378960 
	C1040.101562,54.448887 1043.632080,48.377953 1051.307495,46.699482 
	C1056.547241,45.553616 1061.405396,47.153656 1063.945068,51.167297 
	C1066.745605,55.592808 1066.629883,62.254879 1063.692749,65.684555 
	C1060.776733,69.089577 1055.548218,70.046417 1050.335571,68.129189 
	C1043.935547,65.775238 1041.713623,66.160851 1039.737549,70.927971 
	C1039.023193,72.651299 1039.538208,75.195900 1040.201782,77.121170 
	C1042.342529,83.332207 1045.508667,89.266113 1046.998657,95.607765 
	C1049.386841,105.771683 1046.914673,115.334984 1040.773682,123.819443 
	C1033.913696,133.297256 1023.631287,136.246048 1012.880615,136.809570 
	C1005.032776,137.220963 997.083008,135.626099 989.173218,134.992905 
	C988.140015,134.910202 986.225159,135.051910 986.154785,135.389252 
	C985.401245,139.001297 984.176941,142.768997 984.619934,146.301117 
	C985.015991,149.459702 987.757507,151.636612 991.650208,151.054749 
	C993.112488,150.836166 994.639771,151.052460 996.814270,151.405487 
	C998.381348,152.129471 999.268860,152.849579 1000.162292,152.856934 
	C1010.638123,152.943146 1021.115479,152.976547 1031.590332,152.851517 
	C1032.722656,152.838013 1033.841919,151.742661 1034.967285,151.149124 
	C1047.729980,150.793945 1057.888550,157.269394 1061.391724,167.993210 
	C1065.230713,179.744965 1059.823364,195.538422 1050.288452,203.607101 
	C1043.141602,209.654938 1034.909912,212.499237 1026.202515,214.748901 
	C1024.824097,215.104996 1023.524597,215.766449 1022.094299,216.643372 
	C1012.979126,217.000000 1003.958191,217.000000 994.468628,217.000000 
	C992.832581,216.308411 991.724915,215.476944 990.487610,214.949127 
	C984.737366,212.496002 978.714294,210.570663 973.225098,207.639648 
	C959.937561,200.544632 958.635193,177.426453 973.053833,167.994720 
	C974.545105,167.019241 975.985352,165.965851 977.628906,164.823761 
	C975.828308,162.478394 974.075806,160.674988 972.882385,158.556656 
	C968.195801,150.238205 970.452942,142.318314 975.446960,135.246078 
	C978.358765,131.122681 978.243591,129.007370 974.861328,124.960533 
	C965.976868,114.330147 965.359680,101.697098 968.637756,88.679314 
	C971.528564,77.199318 978.623230,69.870102 990.730896,67.211967 
	C992.959106,67.687431 994.708130,68.362007 996.284302,68.077789 
	C1006.564331,66.223923 1016.671143,66.244461 1026.666016,69.749054 
	C1027.882202,70.175522 1029.518677,69.404068 1030.960327,69.187782 
M979.185608,188.789215 
	C982.368469,199.315582 989.777100,205.022995 1000.311401,206.764984 
	C1010.135559,208.389511 1020.056274,207.905914 1029.049194,203.635529 
	C1034.241943,201.169724 1038.942505,197.058304 1042.917847,192.803055 
	C1047.216797,188.201431 1047.333008,181.895020 1044.939453,176.353943 
	C1042.419800,170.520706 1036.819824,168.968292 1030.777344,168.975739 
	C1018.120422,168.991364 1005.463562,168.950821 992.806641,168.950119 
	C986.964661,168.949799 982.107361,172.052368 980.377197,177.680176 
	C979.377991,180.930374 979.475586,184.517776 979.185608,188.789215 
M988.380554,110.800514 
	C991.677429,125.938843 1001.562744,129.160385 1015.417114,126.199051 
	C1021.262207,124.949684 1024.330566,120.874886 1025.983154,115.400520 
	C1028.244019,107.910774 1028.166260,100.332680 1026.720703,92.772751 
	C1024.328247,80.260429 1020.616821,76.620049 1008.589661,74.398346 
	C1000.856995,72.969940 993.218567,77.129173 989.919434,84.078873 
	C985.899658,92.546700 986.804626,101.214661 988.380554,110.800514 
z"/>
<path fill="#182B48" opacity="1.000000" stroke="none" 
	d="
M252.022156,171.837616 
	C250.969543,171.901810 249.916931,171.965988 248.244324,171.732681 
	C246.930466,171.022675 246.239700,170.258270 245.542206,170.252075 
	C238.594131,170.190430 231.643265,170.187271 224.698013,170.360840 
	C223.761261,170.384277 222.851181,171.474472 221.928741,172.070679 
	C221.484253,172.032074 221.039780,171.993454 220.157227,171.872223 
	C219.491806,171.740173 219.271469,171.765442 219.058136,171.865417 
	C192.982971,167.853287 175.884552,152.565338 166.186081,128.740021 
	C158.075134,108.814659 156.272202,87.834320 159.015793,66.644760 
	C160.366791,56.210564 162.338501,45.628784 165.830460,35.750484 
	C171.823074,18.798094 184.568375,8.456510 201.934692,3.803721 
	C203.631073,3.349226 205.199417,2.416860 206.913605,1.353154 
	C221.354233,1.000000 235.708450,1.000000 250.531342,0.999999 
	C252.170395,1.687970 253.261917,2.706004 254.524597,3.007695 
	C260.501526,4.435743 266.617889,5.364467 272.476776,7.152042 
	C274.274689,7.700596 276.538849,10.329680 276.668152,12.143054 
	C277.412720,22.584280 277.622711,33.065468 277.910034,43.535957 
	C277.971008,45.759499 278.464874,48.405048 274.950623,48.841663 
	C271.649872,49.251747 270.107330,47.532082 269.071472,44.708878 
	C266.140015,36.719074 262.876068,28.919678 256.500854,22.880976 
	C242.093063,9.233736 213.453781,7.654973 199.336365,23.166544 
	C191.046112,32.275497 187.345459,43.576664 186.229294,55.430450 
	C185.078491,67.651978 184.809937,80.022354 185.139465,92.301208 
	C185.573288,108.466797 189.216797,123.993965 198.754715,137.461899 
	C208.761047,151.591248 222.839630,158.341110 240.000793,158.988342 
	C251.562317,159.424377 262.928833,158.605392 273.829285,154.237534 
	C276.995636,152.968750 278.817871,153.849472 278.969574,157.720108 
	C279.277618,165.580658 279.210480,165.974548 271.621399,168.211868 
	C268.775635,169.050842 265.794891,169.431915 262.178467,169.870193 
	C258.145721,169.610199 254.306808,167.254837 252.022156,171.837616 
z"/>
<path fill="#182B47" opacity="1.000000" stroke="none" 
	d="
M1155.000000,133.531342 
	C1154.240601,135.316437 1153.182495,136.545349 1152.767334,137.962631 
	C1147.806763,154.895386 1138.327515,167.475372 1120.158325,171.367889 
	C1102.772217,175.092606 1087.018066,171.910431 1074.382812,158.688522 
	C1068.189087,152.207077 1064.667236,144.180664 1062.865601,135.289932 
	C1060.345215,122.851204 1060.349365,110.611191 1063.796021,98.340096 
	C1067.869385,83.837364 1076.350098,73.253174 1090.924072,67.571533 
	C1092.988647,67.898178 1094.535522,68.167137 1096.086548,68.193619 
	C1104.461060,68.336639 1112.848389,68.192032 1121.206299,68.627792 
	C1124.888428,68.819778 1128.511230,70.149269 1132.160889,70.962318 
	C1142.776123,76.361794 1148.234253,85.736832 1151.898804,96.512283 
	C1152.623657,98.643562 1153.489868,100.726723 1154.645386,102.916039 
	C1155.000000,113.020897 1155.000000,123.041786 1155.000000,133.531342 
M1116.447144,161.422180 
	C1123.561035,158.444031 1127.304443,152.619324 1130.017822,145.760422 
	C1134.427856,134.612335 1134.970825,122.907852 1133.786377,111.347107 
	C1132.921387,102.906410 1130.685791,94.352066 1127.513794,86.471169 
	C1124.137695,78.083061 1116.519531,73.959335 1107.483276,74.285065 
	C1097.981445,74.627602 1091.766968,79.997299 1087.850586,88.731606 
	C1082.687134,100.247437 1082.610962,112.296356 1083.021240,124.450211 
	C1083.467651,137.669510 1085.948608,150.220993 1096.070923,160.394287 
	C1099.845215,164.892670 1110.907227,166.811050 1115.403442,163.672073 
	C1115.805298,163.391479 1115.794067,162.519043 1116.447144,161.422180 
z"/>
<path fill="#C29016" opacity="1.000000" stroke="none" 
	d="
M1080.976562,214.819565 
	C1073.584717,214.819550 1066.192871,214.819550 1058.645508,214.819550 
	C1060.075195,209.235428 1062.940552,207.008957 1068.213867,207.006577 
	C1094.168823,206.994873 1120.123779,206.987640 1146.078491,207.054031 
	C1148.933350,207.061340 1151.786743,207.549347 1154.820435,207.407196 
	C1155.000000,207.750000 1155.000000,208.500000 1155.000000,209.625000 
	C1154.104004,211.387451 1153.208008,212.774872 1151.899170,214.801392 
	C1148.200806,214.801392 1143.544556,214.801392 1138.075439,214.589264 
	C1119.119995,214.294449 1100.977417,214.204865 1082.834717,214.158524 
	C1082.215942,214.156937 1081.595947,214.589417 1080.976562,214.819565 
z"/>
<path fill="#000055" opacity="0" stroke="none" 
	d="
M66.531342,1.000000 
	C66.961014,1.450713 66.922035,1.901425 66.428482,2.691972 
	C49.652252,3.055528 33.330597,3.079249 16.541973,3.081041 
	C11.050006,3.039409 6.025003,3.019704 1.000000,3.000000 
	C0.389515,-0.040288 2.698074,1.035083 3.967677,1.032288 
	C24.665937,0.986730 45.364323,1.000000 66.531342,1.000000 
z"/>
<path fill="#000055" opacity="1.000000" stroke="none" 
	d="
M103.916153,2.946414 
	C103.978317,2.513616 104.040489,2.080818 104.051331,1.324010 
	C123.020897,1.000000 142.041794,1.000000 161.531342,1.000000 
	C161.943726,1.457033 161.887451,1.914066 161.357254,2.708538 
	C146.256500,3.065618 131.629669,3.085258 116.539795,3.078328 
	C112.023224,3.016642 107.969688,2.981528 103.916153,2.946414 
z"/>
<path fill="#102543" opacity="1.000000" stroke="none" 
	d="
M1.000000,3.437500 
	C6.025003,3.019704 11.050006,3.039409 16.424616,3.407433 
	C15.313589,4.826107 13.831225,5.868358 12.399172,6.975674 
	C11.246104,7.867267 10.153862,8.837521 9.034632,9.772873 
	C6.653784,9.836555 4.272936,9.900236 1.446044,9.981958 
	C1.000000,7.958333 1.000000,5.916667 1.000000,3.437500 
z"/>
<path fill="#182A48" opacity="1.000000" stroke="none" 
	d="
M719.001953,169.845673 
	C716.957764,169.872330 714.913513,169.898972 712.200317,169.594574 
	C709.474731,168.844467 707.411133,168.035553 705.362610,168.072235 
	C695.224915,168.253769 685.092468,168.714157 674.955322,168.952667 
	C671.734985,169.028427 668.547485,168.682434 670.045532,163.947403 
	C681.585815,164.458618 689.718140,157.798187 689.259399,145.962280 
	C689.639343,143.856766 689.966431,142.547699 689.967957,141.238235 
	C689.998657,114.823700 690.006104,88.409096 689.958374,61.994614 
	C689.955444,60.371048 689.457336,58.748371 689.189697,57.125282 
	C689.136414,46.553520 689.168762,35.980377 688.997498,25.410534 
	C688.895447,19.112555 686.732483,13.849624 680.283264,10.587160 
	C681.025757,8.922464 681.970398,6.736230 683.029358,6.679386 
	C693.272095,6.129533 703.533203,5.905413 713.790710,5.651790 
	C724.198303,5.394455 734.607666,5.208846 745.016296,4.991824 
	C764.220886,4.832996 780.986023,10.788385 794.364014,24.950535 
	C803.974976,35.124912 808.471497,47.795685 810.728271,61.217022 
	C814.208679,81.914871 814.205872,102.620903 807.949524,122.880943 
	C801.867126,142.577515 789.952637,157.128464 769.136353,163.935547 
	C766.278992,163.957916 764.103271,163.754532 762.042297,164.149780 
	C758.170471,164.892380 754.407654,166.499588 750.523132,166.819321 
	C741.986755,167.521912 733.396851,167.549606 724.842773,168.079025 
	C722.867004,168.201309 720.947388,169.232666 719.001953,169.845673 
M774.635925,34.930618 
	C770.752502,31.105598 767.304626,26.659279 762.902893,23.573586 
	C750.343933,14.769503 735.797852,14.391631 721.187988,15.099404 
	C716.541321,15.324513 713.857727,17.766901 713.941772,22.775042 
	C714.031311,28.106308 713.923889,33.440697 713.920349,38.773735 
	C713.896667,74.605850 713.872742,110.437965 713.860413,146.270081 
	C713.857056,155.955887 715.933716,158.306580 725.489868,157.969345 
	C732.748657,157.713165 740.104431,157.260437 747.197937,155.817963 
	C767.747192,151.639282 778.221802,137.559036 783.111633,118.143761 
	C786.827942,103.388077 786.531555,88.375771 785.817444,73.456032 
	C785.180420,60.145718 782.741028,46.998581 774.635925,34.930618 
z"/>
<path fill="#182B48" opacity="1.000000" stroke="none" 
	d="
M9.399401,9.878582 
	C10.153862,8.837521 11.246104,7.867267 12.399172,6.975674 
	C13.831225,5.868358 15.313589,4.826107 16.891582,3.429361 
	C33.330597,3.079249 49.652252,3.055528 66.432701,3.033773 
	C68.658218,8.732921 68.071030,9.690818 62.656033,9.945137 
	C52.846943,10.405829 48.296299,14.562859 46.935230,24.270487 
	C46.705986,25.905563 46.378422,27.526857 46.069042,30.029079 
	C46.050587,57.616772 46.059372,84.329903 46.068153,111.043037 
	C47.074032,119.216682 47.475937,127.522926 49.234058,135.531433 
	C51.591763,146.271103 57.873856,154.338989 68.915298,158.987091 
	C70.058159,160.185760 70.774513,161.370453 71.521805,161.390320 
	C80.081268,161.617722 88.646378,161.748276 97.207054,161.650101 
	C98.138206,161.639450 99.051094,160.035889 99.972458,159.171158 
	C114.267212,155.199356 121.527031,145.043655 122.831833,130.999802 
	C124.012268,118.294655 123.926270,105.453423 124.016335,92.669502 
	C124.169945,70.865700 123.891624,49.058712 124.070282,27.255320 
	C124.140259,18.717182 120.883965,12.873364 112.397774,9.578083 
	C113.757431,7.082724 115.380127,5.093812 117.002823,3.104899 
	C131.629669,3.085258 146.256500,3.065618 161.333466,3.055382 
	C162.025543,9.610716 162.025543,9.610715 155.549057,9.970289 
	C145.431381,10.532022 140.952148,15.255211 140.790009,25.429939 
	C140.769455,26.718636 140.385651,28.001541 140.110016,30.112930 
	C140.056839,60.295139 140.063797,89.651543 140.070740,119.007950 
	C140.253082,131.232178 139.051926,143.005463 132.209793,153.793854 
	C126.646530,162.565796 118.659607,167.337021 109.121964,169.916962 
	C92.960014,174.288757 76.598763,174.073166 60.268013,170.938263 
	C36.737289,166.421204 22.611395,148.433990 23.415100,123.217682 
	C24.157602,120.984940 24.931841,119.435402 24.936138,117.883736 
	C25.009642,91.349693 25.025431,64.815208 24.902372,38.281532 
	C24.894203,36.520119 23.670893,34.764343 23.016562,32.675789 
	C22.984552,30.874523 22.948755,29.403414 22.912960,27.932302 
	C22.141708,24.424446 21.599730,20.845943 20.545668,17.425232 
	C18.949442,12.245049 14.242282,11.194654 9.399401,9.878582 
z"/>
<path fill="#182A47" opacity="1.000000" stroke="none" 
	d="
M608.095215,141.984467 
	C608.089233,125.830643 608.087646,110.173950 608.068298,94.517273 
	C608.066284,92.853813 608.150574,91.157295 607.866943,89.533371 
	C607.047974,84.844055 605.928406,79.892708 600.632507,78.559372 
	C595.240662,77.201897 589.656372,77.282761 585.100342,81.447227 
	C573.347107,92.190361 566.819092,105.300323 566.936523,121.458794 
	C567.010376,131.618454 566.928833,141.779144 566.957703,151.939270 
	C566.980225,159.857773 569.930908,163.184998 577.715515,163.992966 
	C580.225891,164.253525 582.801270,163.863037 582.577271,167.836594 
	C582.360596,171.679214 579.626099,170.890137 577.526611,170.903290 
	C563.536194,170.990906 549.542786,171.064407 535.556763,170.802490 
	C533.801331,170.769592 530.901550,169.003448 530.592712,167.590164 
	C529.942749,164.614975 532.624268,164.145615 535.186157,163.961136 
	C542.873291,163.407593 546.858765,159.627731 546.931458,151.858383 
	C547.133911,130.207764 547.053162,108.553635 546.941162,86.901619 
	C546.914734,81.779213 543.885742,78.608406 539.054321,77.235168 
	C536.375916,76.473854 533.627075,75.960136 531.047791,75.366524 
	C530.015381,70.797562 531.607300,69.166344 536.009888,68.845749 
	C544.595398,68.220566 553.136597,66.988747 561.696289,66.008965 
	C565.522705,65.570969 567.170105,67.151665 566.995117,71.111671 
	C566.775452,76.083702 566.942261,81.072807 567.933838,86.599129 
	C570.357910,83.287224 572.622498,79.843346 575.234314,76.686821 
	C585.355042,64.455460 601.387451,61.099998 615.305481,67.184380 
	C625.391357,71.593513 626.677368,81.024193 626.897949,90.197830 
	C627.346252,108.841606 626.999023,127.504059 627.039246,146.158676 
	C627.044250,148.466873 627.162231,150.829132 627.655396,153.072327 
	C629.557434,161.722977 631.088379,162.878204 639.889404,164.179810 
	C641.337891,164.394012 643.364258,166.021484 643.697876,167.353027 
	C644.407532,170.185226 642.203735,170.948227 639.716980,170.944244 
	C624.893494,170.920532 610.068604,171.002213 595.248657,170.769257 
	C593.876526,170.747711 592.535156,168.771820 591.179504,167.703384 
	C592.348572,166.491409 593.444214,164.313309 594.698120,164.218063 
	C606.275391,163.338470 608.157349,157.801163 608.078674,148.977203 
	C608.059326,146.812225 608.087891,144.646805 608.095215,141.984467 
z"/>
<path fill="#192B47" opacity="1.000000" stroke="none" 
	d="
M489.918976,66.156258 
	C503.188416,69.102974 510.973572,78.604576 510.985077,91.976227 
	C511.003448,113.294411 510.958496,134.612640 510.979034,155.930817 
	C510.986206,163.373398 511.638641,163.977600 518.920837,163.998779 
	C520.585754,164.003616 522.400391,163.651321 523.869080,164.202164 
	C525.094116,164.661652 526.619446,166.142197 526.717163,167.281479 
	C526.818054,168.458160 525.562317,170.640640 524.545227,170.880951 
	C517.275024,172.598801 509.922333,174.267807 502.480255,171.618591 
	C496.778473,169.588913 493.622833,165.449570 492.843475,160.589035 
	C486.586121,164.056564 480.420776,168.318771 473.629974,170.992676 
	C467.154663,173.542358 460.064056,173.634811 453.103210,171.558197 
	C442.907043,168.516418 434.487152,158.442520 434.004883,148.325043 
	C433.437592,136.423950 440.728485,124.641151 450.917725,120.107529 
	C461.581879,115.362587 472.790985,113.559990 484.288422,112.971725 
	C491.256531,112.615204 492.163940,111.920815 492.035095,105.146149 
	C491.918579,99.021156 491.910248,92.834381 491.021362,86.797478 
	C489.606140,77.186096 482.575714,73.358467 472.097137,74.609055 
	C461.720093,75.847527 460.777588,77.338058 460.006531,87.915527 
	C459.663025,92.627464 456.958374,96.117218 453.089417,97.477707 
	C448.955139,98.931503 444.178833,98.889114 440.559418,95.053581 
	C437.272003,91.569801 436.420502,87.672813 438.129150,83.190216 
	C440.232544,77.671936 443.701630,73.423225 449.883759,71.147568 
	C451.335144,71.270172 452.269714,71.593666 452.934021,71.301895 
	C463.624817,66.605995 474.856171,66.517143 486.208038,67.157745 
	C487.422302,67.226273 488.680939,66.509003 489.918976,66.156258 
M477.704803,159.547668 
	C480.481110,157.477921 483.928101,155.907776 485.910431,153.246597 
	C492.369202,144.575806 494.043549,134.486328 492.828278,123.909843 
	C492.715729,122.930229 490.846008,121.226585 490.126465,121.384270 
	C481.914368,123.183929 473.367706,124.327744 465.705658,127.542274 
	C456.500458,131.404266 453.273193,141.893692 457.312042,151.238708 
	C460.098022,157.684860 466.242737,163.278809 477.704803,159.547668 
z"/>
<path fill="#182B48" opacity="1.000000" stroke="none" 
	d="
M918.870850,172.096680 
	C918.870850,172.096680 918.400146,171.997833 917.859497,171.775970 
	C911.626892,169.715546 905.945923,167.842331 900.238037,166.054779 
	C897.815918,165.296249 895.337463,164.717529 892.884644,164.057068 
	C887.915039,158.649902 881.278198,154.030914 878.281006,147.691223 
	C868.367493,126.722076 867.880127,104.987915 878.316162,83.941719 
	C880.800720,78.931129 886.197998,75.364845 890.907654,71.159317 
	C893.155334,70.927322 894.829773,70.898224 896.334167,70.377625 
	C910.012390,65.644295 923.532471,64.928101 936.960327,71.374649 
	C938.446228,72.087975 940.422119,71.780632 942.170715,71.946678 
	C952.514160,80.103340 955.918274,90.988777 955.027710,103.755707 
	C954.763977,107.536171 952.749084,108.004204 949.773682,107.997391 
	C935.798706,107.965401 921.823547,107.988350 907.848450,107.996315 
	C903.689636,107.998680 899.530457,108.050690 895.372070,108.015480 
	C892.162537,107.988312 890.614258,109.672462 891.062378,112.688782 
	C893.770752,130.919998 899.001099,147.755157 916.826904,157.922897 
	C917.491394,159.157089 917.923889,160.410065 918.573425,160.535019 
	C925.494995,161.866577 932.417969,163.371216 939.415649,164.026733 
	C941.804932,164.250549 944.405457,162.218628 946.909485,161.217346 
	C948.846008,161.442581 952.187744,161.182846 952.463318,161.981247 
	C953.401123,164.698898 953.644958,168.013443 949.908020,169.356018 
	C947.924622,170.068619 945.803955,170.399429 943.156555,170.675644 
	C936.600464,170.303497 930.628967,169.979370 924.668030,170.115295 
	C922.721558,170.159698 920.802490,171.402161 918.870850,172.096680 
M893.287781,98.854691 
	C905.421875,98.897987 917.557373,99.039177 929.688049,98.854401 
	C931.121887,98.832550 933.542969,97.225784 933.784241,96.011490 
	C935.438782,87.684402 927.566895,76.728401 919.315735,74.935989 
	C909.491394,72.801834 901.843140,76.301056 896.649231,84.338028 
	C893.999634,88.437988 890.187134,92.834862 893.287781,98.854691 
z"/>
<path fill="#182A47" opacity="1.000000" stroke="none" 
	d="
M827.423767,69.848251 
	C827.423767,69.848251 827.334839,69.707954 827.764526,69.859985 
	C835.087830,69.112183 841.986938,68.249069 848.862793,67.229378 
	C849.317993,67.161865 849.596497,65.902153 849.957153,65.196960 
	C855.133484,63.705360 856.055969,66.212662 856.028625,70.843590 
	C855.873352,97.145065 855.979248,123.448021 855.971741,149.750473 
	C855.968933,159.529938 858.741333,162.622269 868.489929,164.229004 
	C869.761414,164.438553 871.662781,166.313797 871.644043,167.389206 
	C871.623474,168.570282 869.733154,170.714584 868.632019,170.730988 
	C853.487305,170.956772 838.337097,170.958710 823.192383,170.734467 
	C822.154175,170.719101 820.557922,168.565109 820.340576,167.224228 
	C820.200317,166.359222 822.093201,164.265121 823.094604,164.252258 
	C834.497620,164.105637 837.004639,158.169479 837.019714,147.410385 
	C837.045837,128.765274 837.035034,110.120094 837.024780,91.474953 
	C837.019287,81.500214 834.317871,78.316948 824.511169,75.999962 
	C822.937378,75.628136 821.645996,74.060905 820.224060,73.046265 
	C821.593750,71.746788 822.963440,70.447311 824.867004,69.302597 
	C825.606995,69.640976 825.821716,69.813927 826.044983,69.976212 
	C826.044983,69.976212 826.000244,70.009361 826.171387,70.015945 
	C826.702881,69.964439 827.063354,69.906342 827.423767,69.848251 
z"/>
<path fill="#AAAA55" opacity="1.000000" stroke="none" 
	d="
M104.438538,214.839996 
	C106.108238,214.481964 108.236420,214.022430 110.364639,214.022186 
	C384.344727,213.991531 658.324768,213.993790 932.304871,214.011627 
	C934.293457,214.011749 936.282104,214.248444 938.641602,214.552002 
	C937.522461,214.819519 936.032349,214.988693 934.542236,214.988754 
	C658.659973,214.999985 382.777649,214.999191 106.895370,214.996887 
	C106.229263,214.996887 105.563148,214.968231 104.438538,214.839996 
z"/>
<path fill="#182B48" opacity="1.000000" stroke="none" 
	d="
M846.755005,45.972900 
	C838.946289,47.029957 831.773071,40.634880 832.293274,31.666801 
	C832.794373,23.029112 840.947815,17.361553 849.658020,19.110727 
	C853.612122,19.904789 858.180725,25.244110 858.879333,29.887781 
	C859.736328,35.583828 857.258789,41.545177 852.730164,44.033566 
	C851.036255,44.964378 849.035339,45.336674 846.755005,45.972900 
z"/>
<path fill="#12243E" opacity="1.000000" stroke="none" 
	d="
M23.012775,33.005943 
	C23.670893,34.764343 24.894203,36.520119 24.902372,38.281532 
	C25.025431,64.815208 25.009642,91.349693 24.936138,117.883736 
	C24.931841,119.435402 24.157602,120.984940 23.451025,122.767609 
	C22.820000,119.919632 22.479614,116.839500 22.313080,112.946777 
	C22.658020,109.994545 22.974483,107.855164 22.977951,105.715263 
	C23.017225,81.478874 23.008583,57.242397 23.012775,33.005943 
z"/>
<path fill="#0D263F" opacity="1.000000" stroke="none" 
	d="
M744.694153,4.772103 
	C734.607666,5.208846 724.198303,5.394455 713.790710,5.651790 
	C703.533203,5.905413 693.272095,6.129533 683.029358,6.679386 
	C681.970398,6.736230 681.025757,8.922464 680.026550,10.469137 
	C677.063843,10.513287 674.038147,10.474118 671.172852,9.776426 
	C669.997803,9.490302 669.168823,7.782795 668.182434,6.721865 
	C669.183105,5.848491 670.063293,4.507308 671.212646,4.211518 
	C672.931091,3.769258 674.838867,4.046563 676.666077,4.045356 
	C697.927368,4.031317 719.188599,4.012896 740.449890,4.035432 
	C741.757446,4.036818 743.064636,4.372332 744.694153,4.772103 
z"/>
<path fill="#23344B" opacity="1.000000" stroke="none" 
	d="
M941.924194,71.693764 
	C940.422119,71.780632 938.446228,72.087975 936.960327,71.374649 
	C923.532471,64.928101 910.012390,65.644295 896.334167,70.377625 
	C894.829773,70.898224 893.155334,70.927322 891.242798,71.077866 
	C905.877686,62.356857 921.203613,62.199497 936.817139,68.979027 
	C938.480103,69.701088 940.059570,70.615601 941.924194,71.693764 
z"/>
<path fill="#213043" opacity="1.000000" stroke="none" 
	d="
M719.469116,169.887177 
	C720.947388,169.232666 722.867004,168.201309 724.842773,168.079025 
	C733.396851,167.549606 741.986755,167.521912 750.523132,166.819321 
	C754.407654,166.499588 758.170471,164.892380 762.042297,164.149780 
	C764.103271,163.754532 766.278992,163.957916 768.770020,163.969055 
	C762.985718,165.698196 756.917908,168.187149 750.664124,168.810333 
	C740.485474,169.824661 730.185242,169.619293 719.469116,169.887177 
z"/>
<path fill="#23344B" opacity="1.000000" stroke="none" 
	d="
M1030.639648,69.005898 
	C1029.518677,69.404068 1027.882202,70.175522 1026.666016,69.749054 
	C1016.671143,66.244461 1006.564331,66.223923 996.284302,68.077789 
	C994.708130,68.362007 992.959106,67.687431 991.106934,67.155823 
	C1004.264099,63.336937 1017.452698,62.854282 1030.639648,69.005898 
z"/>
<path fill="#23344B" opacity="1.000000" stroke="none" 
	d="
M1131.905029,70.716949 
	C1128.511230,70.149269 1124.888428,68.819778 1121.206299,68.627792 
	C1112.848389,68.192032 1104.461060,68.336639 1096.086548,68.193619 
	C1094.535522,68.167137 1092.988647,67.898178 1091.253906,67.476646 
	C1105.031128,62.866066 1118.623779,63.136673 1131.905029,70.716949 
z"/>
<path fill="#22334A" opacity="1.000000" stroke="none" 
	d="
M489.525787,66.041946 
	C488.680939,66.509003 487.422302,67.226273 486.208038,67.157745 
	C474.856171,66.517143 463.624817,66.605995 452.934021,71.301895 
	C452.269714,71.593666 451.335144,71.270172 450.227905,71.074783 
	C454.488007,69.171501 458.935577,67.002419 463.629395,65.774025 
	C472.071533,63.564659 480.641754,63.945904 489.525787,66.041946 
z"/>
<path fill="#000080" opacity="1.000000" stroke="none" 
	d="
M140.354675,118.699913 
	C140.063797,89.651543 140.056839,60.295139 140.079071,30.471159 
	C140.403152,31.252371 140.953354,32.500729 140.955460,33.750008 
	C141.001419,61.146114 140.989548,88.542328 140.968887,115.938515 
	C140.968277,116.756386 140.753540,117.574089 140.354675,118.699913 
z"/>
<path fill="#2A2A55" opacity="1.000000" stroke="none" 
	d="
M689.134705,57.581299 
	C689.457336,58.748371 689.955444,60.371048 689.958374,61.994614 
	C690.006104,88.409096 689.998657,114.823700 689.967957,141.238235 
	C689.966431,142.547699 689.639343,143.856766 689.300537,145.532959 
	C689.118042,116.612350 689.098877,87.324829 689.134705,57.581299 
z"/>
<path fill="#242449" opacity="1.000000" stroke="none" 
	d="
M23.016562,32.675789 
	C23.008583,57.242397 23.017225,81.478874 22.977951,105.715263 
	C22.974483,107.855164 22.658020,109.994545 22.329994,112.498734 
	C22.126389,85.601578 22.076113,58.339851 22.050514,31.078102 
	C22.049749,30.262529 22.307604,29.446714 22.678921,28.281658 
	C22.948755,29.403414 22.984552,30.874523 23.016562,32.675789 
z"/>
<path fill="#213043" opacity="1.000000" stroke="none" 
	d="
M669.771240,163.820007 
	C668.547485,168.682434 671.734985,169.028427 674.955322,168.952667 
	C685.092468,168.714157 695.224915,168.253769 705.362610,168.072235 
	C707.411133,168.035553 709.474731,168.844467 711.763672,169.554565 
	C698.881287,169.892151 685.766296,170.002563 672.651978,169.952118 
	C667.765625,169.933319 666.839233,167.912720 669.771240,163.820007 
z"/>
<path fill="#22334A" opacity="1.000000" stroke="none" 
	d="
M1034.502930,151.106781 
	C1033.841919,151.742661 1032.722656,152.838013 1031.590332,152.851517 
	C1021.115479,152.976547 1010.638123,152.943146 1000.162292,152.856934 
	C999.268860,152.849579 998.381348,152.129471 997.264160,151.448471 
	C1009.370972,151.125793 1021.704773,151.095108 1034.502930,151.106781 
z"/>
<path fill="#22334A" opacity="1.000000" stroke="none" 
	d="
M319.109863,162.453583 
	C322.004974,167.458939 327.407562,167.116486 332.353394,168.014420 
	C337.434357,168.936874 342.450012,170.219254 347.726013,171.608826 
	C339.420654,170.852600 330.839417,170.078125 322.390106,168.566406 
	C320.994202,168.316666 320.175690,164.839478 319.109863,162.453583 
z"/>
<path fill="#22334A" opacity="1.000000" stroke="none" 
	d="
M350.234894,172.355743 
	C350.322784,171.653366 350.770355,170.775726 351.201324,170.783798 
	C359.245026,170.934464 367.286713,171.190414 375.624390,171.642395 
	C367.475555,172.104630 359.031189,172.348709 350.234894,172.355743 
z"/>
<path fill="#22334A" opacity="1.000000" stroke="none" 
	d="
M946.496704,161.191849 
	C944.405457,162.218628 941.804932,164.250549 939.415649,164.026733 
	C932.417969,163.371216 925.494995,161.866577 918.573425,160.535019 
	C917.923889,160.410065 917.491394,159.157089 917.061768,158.175079 
	C926.450806,162.160278 936.108521,163.079544 946.496704,161.191849 
z"/>
<path fill="#22334A" opacity="1.000000" stroke="none" 
	d="
M222.287140,172.288818 
	C222.851181,171.474472 223.761261,170.384277 224.698013,170.360840 
	C231.643265,170.187271 238.594131,170.190430 245.542206,170.252075 
	C246.239700,170.258270 246.930466,171.022675 247.848907,171.746933 
	C239.597488,172.208099 231.121521,172.357529 222.287140,172.288818 
z"/>
<path fill="#23344B" opacity="1.000000" stroke="none" 
	d="
M919.217957,172.340622 
	C920.802490,171.402161 922.721558,170.159698 924.668030,170.115295 
	C930.628967,169.979370 936.600464,170.303497 942.761902,170.670197 
	C935.158997,171.455963 927.362061,172.020248 919.217957,172.340622 
z"/>
<path fill="#B19D4E" opacity="1.000000" stroke="none" 
	d="
M1081.442139,214.898621 
	C1081.595947,214.589417 1082.215942,214.156937 1082.834717,214.158524 
	C1100.977417,214.204865 1119.119995,214.294449 1137.633301,214.559067 
	C1119.305176,214.819870 1100.606445,214.898773 1081.442139,214.898621 
z"/>
<path fill="#213043" opacity="1.000000" stroke="none" 
	d="
M893.080750,164.346161 
	C895.337463,164.717529 897.815918,165.296249 900.238037,166.054779 
	C905.945923,167.842331 911.626892,169.715546 917.625793,171.719055 
	C908.958862,172.036697 900.814514,169.367737 893.080750,164.346161 
z"/>
<path fill="#23344B" opacity="1.000000" stroke="none" 
	d="
M849.559692,65.230652 
	C849.596497,65.902153 849.317993,67.161865 848.862793,67.229378 
	C841.986938,68.249069 835.087830,69.112183 827.834167,69.814743 
	C833.098694,68.421104 838.719543,67.206879 844.350220,66.039803 
	C845.939514,65.710373 847.557434,65.519020 849.559692,65.230652 
z"/>
<path fill="#AAAA55" opacity="1.000000" stroke="none" 
	d="
M27.438366,214.839844 
	C36.074856,214.609833 45.170582,214.492874 54.640144,214.552414 
	C45.975193,214.803574 36.936398,214.878235 27.438366,214.839844 
z"/>
<path fill="#22334A" opacity="1.000000" stroke="none" 
	d="
M252.433868,171.878021 
	C254.306808,167.254837 258.145721,169.610199 261.763794,169.875488 
	C258.979370,170.661057 255.912476,171.289749 252.433868,171.878021 
z"/>
<path fill="#22334A" opacity="1.000000" stroke="none" 
	d="
M219.276535,171.883453 
	C219.271469,171.765442 219.491806,171.740173 219.825500,171.828247 
	C219.931854,171.866913 219.494934,171.901489 219.276535,171.883453 
z"/>
<path fill="#23344B" opacity="1.000000" stroke="none" 
	d="
M827.060791,69.801544 
	C827.063354,69.906342 826.702881,69.964439 826.167969,69.988297 
	C826.228271,69.887657 826.463013,69.821251 827.060791,69.801544 
z"/>
<path fill="#23344B" opacity="1.000000" stroke="none" 
	d="
M825.975403,69.760956 
	C825.821716,69.813927 825.606995,69.640976 825.251099,69.316025 
	C825.418518,69.192184 825.686646,69.315849 825.975403,69.760956 
z"/>
<path fill="#000055" opacity="1.000000" stroke="none" 
	d="
M46.302040,110.697525 
	C46.059372,84.329903 46.050587,57.616772 46.067299,30.433266 
	C46.392418,31.394619 46.950081,32.825779 46.953224,34.258156 
	C47.006371,58.478256 46.996738,82.698517 46.970734,106.918709 
	C46.969501,108.063293 46.687286,109.207588 46.302040,110.697525 
z"/>
<path fill="#102543" opacity="1.000000" stroke="none" 
	d="
M116.539795,3.078327 
	C115.380127,5.093812 113.757431,7.082724 112.086533,9.398741 
	C110.900764,9.805635 109.763504,9.948816 108.625572,9.954489 
	C103.047455,9.982298 102.652206,9.480126 103.698776,3.271594 
	C107.969688,2.981528 112.023224,3.016642 116.539795,3.078327 
z"/>
<path fill="#22334A" opacity="1.000000" stroke="none" 
	d="
M99.557022,159.152054 
	C99.051094,160.035889 98.138206,161.639450 97.207054,161.650101 
	C88.646378,161.748276 80.081268,161.617722 71.521805,161.390320 
	C70.774513,161.370453 70.058159,160.185760 69.177429,159.208374 
	C79.046577,161.164581 89.086868,160.989090 99.557022,159.152054 
z"/>
<path fill="#000000" opacity="0" stroke="none" 
	d="
M979.132568,188.371323 
	C979.475586,184.517776 979.377991,180.930374 980.377197,177.680176 
	C982.107361,172.052368 986.964661,168.949799 992.806641,168.950119 
	C1005.463562,168.950821 1018.120422,168.991364 1030.777344,168.975739 
	C1036.819824,168.968292 1042.419800,170.520706 1044.939453,176.353943 
	C1047.333008,181.895020 1047.216797,188.201431 1042.917847,192.803055 
	C1038.942505,197.058304 1034.241943,201.169724 1029.049194,203.635529 
	C1020.056274,207.905914 1010.135559,208.389511 1000.311401,206.764984 
	C989.777100,205.022995 982.368469,199.315582 979.132568,188.371323 
z"/>
<path fill="#000000" opacity="0" stroke="none" 
	d="
M988.281860,110.387970 
	C986.804626,101.214661 985.899658,92.546700 989.919434,84.078873 
	C993.218567,77.129173 1000.856995,72.969940 1008.589661,74.398346 
	C1020.616821,76.620049 1024.328247,80.260429 1026.720703,92.772751 
	C1028.166260,100.332680 1028.244019,107.910774 1025.983154,115.400520 
	C1024.330566,120.874886 1021.262207,124.949684 1015.417114,126.199051 
	C1001.562744,129.160385 991.677429,125.938843 988.281860,110.387970 
z"/>
<path fill="#000000" opacity="0" stroke="none" 
	d="
M1096.052612,159.930450 
	C1085.948608,150.220993 1083.467651,137.669510 1083.021240,124.450211 
	C1082.610962,112.296356 1082.687134,100.247437 1087.850586,88.731606 
	C1091.766968,79.997299 1097.981445,74.627602 1107.483276,74.285065 
	C1116.519531,73.959335 1124.137695,78.083061 1127.513794,86.471169 
	C1130.685791,94.352066 1132.921387,102.906410 1133.786377,111.347107 
	C1134.970825,122.907852 1134.427856,134.612335 1130.017822,145.760422 
	C1127.304443,152.619324 1123.561035,158.444031 1115.792358,161.699066 
	C1108.494507,163.920273 1102.224365,162.384537 1096.052612,159.930450 
z"/>
<path fill="#23344B" opacity="1.000000" stroke="none" 
	d="
M1096.061768,160.162369 
	C1102.224365,162.384537 1108.494507,163.920273 1115.556152,161.948730 
	C1115.794067,162.519043 1115.805298,163.391479 1115.403442,163.672073 
	C1110.907227,166.811050 1099.845215,164.892670 1096.061768,160.162369 
z"/>
<path fill="#000000" opacity="0" stroke="none" 
	d="
M774.854980,35.221695 
	C782.741028,46.998581 785.180420,60.145718 785.817444,73.456032 
	C786.531555,88.375771 786.827942,103.388077 783.111633,118.143761 
	C778.221802,137.559036 767.747192,151.639282 747.197937,155.817963 
	C740.104431,157.260437 732.748657,157.713165 725.489868,157.969345 
	C715.933716,158.306580 713.857056,155.955887 713.860413,146.270081 
	C713.872742,110.437965 713.896667,74.605850 713.920349,38.773735 
	C713.923889,33.440697 714.031311,28.106308 713.941772,22.775042 
	C713.857727,17.766901 716.541321,15.324513 721.187988,15.099404 
	C735.797852,14.391631 750.343933,14.769503 762.902893,23.573586 
	C767.304626,26.659279 770.752502,31.105598 774.854980,35.221695 
z"/>
<path fill="#000000" opacity="0" stroke="none" 
	d="
M477.332672,159.674942 
	C466.242737,163.278809 460.098022,157.684860 457.312042,151.238708 
	C453.273193,141.893692 456.500458,131.404266 465.705658,127.542274 
	C473.367706,124.327744 481.914368,123.183929 490.126465,121.384270 
	C490.846008,121.226585 492.715729,122.930229 492.828278,123.909843 
	C494.043549,134.486328 492.369202,144.575806 485.910431,153.246597 
	C483.928101,155.907776 480.481110,157.477921 477.332672,159.674942 
z"/>
<path fill="#000000" opacity="0" stroke="none" 
	d="
M892.893127,98.750977 
	C890.187134,92.834862 893.999634,88.437988 896.649231,84.338028 
	C901.843140,76.301056 909.491394,72.801834 919.315735,74.935989 
	C927.566895,76.728401 935.438782,87.684402 933.784241,96.011490 
	C933.542969,97.225784 931.121887,98.832550 929.688049,98.854401 
	C917.557373,99.039177 905.421875,98.897987 892.893127,98.750977 
z"/>
</svg>